<?xml version="1.0" encoding="utf-8"?>
<!-- Generator: Adobe Illustrator 27.0.1, SVG Export Plug-In . SVG Version: 6.00 Build 0)  -->
<svg version="1.1" id="Layer_1" xmlns="http://www.w3.org/2000/svg" xmlns:xlink="http://www.w3.org/1999/xlink" x="0px" y="0px"
	 viewBox="0 0 21.6 21.6" style="enable-background:new 0 0 21.6 21.6;" xml:space="preserve">
<style type="text/css">
	.st0{fill:#592D14;}
</style>
<path class="st0" d="M15.8,21.1H5.8c-0.2,0-0.4,0-0.6,0c-2.3-0.5-3.8-1.9-4.4-4.2c0-0.3-0.1-0.6-0.2-1c0-3.3,0-6.7,0-10
	c0,0,0-0.1,0-0.2C0.6,5.1,0.8,4.5,1,4c1.1-2.2,2.8-3.3,5.3-3.3c3,0,6,0,9.1,0c4.7,0.1,5.7,3.8,5.7,5.7c0,3,0,5.9,0,9
	c0,0.4,0,0.8,0,1.2c-0.5,2.3-1.9,3.8-4.2,4.4c-0.3,0-0.6,0.1-1,0.2L15.8,21.1z M10.9,2.4c-1.5,0-3,0-4.4,0c-0.4,0-1,0-1.4,0.2
	C3.5,3.1,2.5,4.5,2.5,6.4c0,3,0,5.9,0,9c0,0.4,0,0.9,0.2,1.3c0.5,1.6,1.9,2.6,3.7,2.6c3,0,5.9,0,9,0c0.4,0,0.9,0,1.3-0.2
	c1.6-0.5,2.6-1.9,2.6-3.7c0-3,0-6,0-9c0-0.7-0.3-1.5-0.8-2.2c-0.6-1-1.7-1.5-2.8-1.6C15.5,2.5,10.9,2.4,10.9,2.4z"/>
<path class="st0" d="M16.1,10.8c0,2.9-2.4,5.3-5.3,5.3s-5.3-2.4-5.3-5.3s2.4-5.3,5.3-5.3S16.1,7.9,16.1,10.8z M10.8,7.3
	c-1.9,0-3.5,1.5-3.5,3.5s1.5,3.5,3.5,3.5s3.5-1.5,3.5-3.5S12.7,7.3,10.8,7.3z"/>
<path class="st0" d="M16.4,6.7c-0.8,0-1.3-0.6-1.3-1.3c0-0.8,0.6-1.3,1.3-1.3c0.8,0,1.3,0.6,1.3,1.3C17.7,6.2,17.1,6.7,16.4,6.7z"/>
</svg>
