<?xml version="1.0" encoding="UTF-8"?><svg id="Layer_1" xmlns="http://www.w3.org/2000/svg" width=".3in" height=".3in" viewBox="0 0 20 20"><path d="M14.6,19.5H5.4c-.2,0-.4,0-.6,0-2.1-.5-3.5-1.8-4.1-3.9,0-.3-.1-.6-.2-.9,0-3.1,0-6.2,0-9.3,0,0,0-.1,0-.2,.1-.5,.2-1,.4-1.5C1.9,1.7,3.5,.6,5.8,.6c2.8,0,5.6,0,8.4,0s2.1,.3,3,.9c1.5,1.1,2.3,2.6,2.3,4.4,0,2.8,0,5.5,0,8.3,0,.4,0,.7,0,1.1-.5,2.1-1.8,3.5-3.9,4.1-.3,0-.6,.1-.9,.2ZM10.1,2.2c-1.4,0-2.8,0-4.1,0-.4,0-.9,0-1.3,.2-1.5,.5-2.4,1.8-2.4,3.5,0,2.8,0,5.5,0,8.3,0,.4,0,.8,.2,1.2,.5,1.5,1.8,2.4,3.4,2.4,2.8,0,5.5,0,8.3,0,.4,0,.8,0,1.2-.2,1.5-.5,2.4-1.8,2.4-3.4,0-2.8,0-5.6,0-8.3,0-1.2-.5-2.2-1.5-3-.6-.5-1.4-.7-2.2-.6-1.4,0-2.7,0-4.1,0Z" fill="#592d14"/><path d="M14.9,10c0,2.7-2.2,4.9-4.9,4.9-2.7,0-4.9-2.2-4.9-4.9,0-2.7,2.2-4.9,4.9-4.9,2.7,0,4.9,2.2,4.9,4.9Zm-4.9-3.2c-1.8,0-3.2,1.4-3.2,3.2,0,1.8,1.4,3.2,3.2,3.2,1.8,0,3.2-1.4,3.2-3.2,0-1.8-1.4-3.2-3.2-3.2Z" fill="#592d14"/><path d="M15.2,6.2c-.7,0-1.2-.6-1.2-1.2,0-.7,.6-1.2,1.2-1.2,.7,0,1.2,.6,1.2,1.2,0,.7-.6,1.2-1.2,1.2Z" fill="#592d14"/></svg>