<?xml version="1.0" encoding="utf-8"?>
<!-- Generator: Adobe Illustrator 27.0.1, SVG Export Plug-In . SVG Version: 6.00 Build 0)  -->
<svg version="1.1" id="Layer_1" xmlns="http://www.w3.org/2000/svg" xmlns:xlink="http://www.w3.org/1999/xlink" x="0px" y="0px"
	 viewBox="0 0 612 792" style="enable-background:new 0 0 612 792;" xml:space="preserve">
<style type="text/css">
	.st0{fill:#8C4D35;stroke:#8C4D35;stroke-width:16;stroke-miterlimit:10;}
	.st1{fill:#8C4D35;stroke:#592E1E;stroke-width:16;stroke-linecap:round;stroke-miterlimit:10;}
	.st2{fill:none;stroke:#592E1E;stroke-width:16;stroke-linecap:round;stroke-miterlimit:10;}
	.st3{fill:none;stroke:#F2E0C9;stroke-width:8;stroke-linecap:round;stroke-miterlimit:10;}
	.st4{fill:none;}
	.st5{fill:#592E1E;}
	.st6{font-family:'EdsMarketRegularSlant';}
	.st7{font-size:43px;}
</style>
<ellipse class="st0" cx="318.8" cy="261.8" rx="47.4" ry="74.9"/>
<ellipse class="st1" cx="306" cy="396" rx="189.8" ry="30.5"/>
<path class="st2" d="M317.6,212.6c0,0-15.2,35.3-5.1,46.1c10.2,10.8,5.1,52.4,5.1,52.4"/>
<path class="st3" d="M295.1,378.3c0,0-213.1,6.4-69.8,23.2c53.7,6.3,109.7,7.3,164.5,3.3c171.6-12.6-102.2-13.3-102.2-13.3"/>
<path class="st1" d="M116.9,407.3l3.5,56.5c0,0,169,53.5,375.4,0v-56.5C495.8,407.3,344.5,475,116.9,407.3z"/>
<path id="SVGID_x5F_1_x5F_" class="st4" d="M119.2,98.2c0,0,197,79.3,379.6,0"/>
<text><textPath  xlink:href="#SVGID_x5F_1_x5F_" startOffset="23.7305%">
</textPath>
</text>
<rect x="135.7" y="507.5" class="st4" width="366.2" height="95.6"/>
<text transform="matrix(1 0 0 1 135.7271 540.0333)" class="st5 st6 st7">  The Beanary</text>
</svg>
