<?xml version="1.0" encoding="utf-8"?>
<!-- Generator: Adobe Illustrator 27.0.1, SVG Export Plug-In . SVG Version: 6.00 Build 0)  -->
<svg version="1.1" id="Layer_1" xmlns="http://www.w3.org/2000/svg" xmlns:xlink="http://www.w3.org/1999/xlink" x="0px" y="0px"
	 viewBox="0 0 600 113" style="enable-background:new 0 0 600 113;" xml:space="preserve">
<style type="text/css">
	.st0{fill:#8C4D35;}
	.st1{fill:none;stroke:#F2E0C9;stroke-width:3;stroke-linecap:round;stroke-miterlimit:10;}
	.st2{fill:none;}
	.st3{fill:#F1E7E1;}
	.st4{fill:#8C4D35;stroke:#8C4D35;stroke-width:3;stroke-miterlimit:10;}
	.st5{fill:none;stroke:#592E1E;stroke-width:3;stroke-linecap:round;stroke-miterlimit:10;}
	.st6{fill:#F2F2F2;}
</style>
<ellipse class="st0" cx="131.5" cy="21.2" rx="50.4" ry="8.1"/>
<path class="st1" d="M128.6,16.5c0,0-56.6,1.7-18.5,6.2c14.3,1.7,29.1,1.9,43.7,0.9c45.6-3.3-27.2-3.5-27.2-3.5"/>
<path id="SVGID_x5F_1_x5F_" class="st2" d="M72.1,47.7c0,0,50.9,24.3,100.6,6.2"/>
<text transform="matrix(1 0 0 1 -6 -383)" style="font-family:'ArialMT'; font-size:12px;"> </text>
<path class="st3" d="M81.3,23l9.3,80.3c0.3,2.6,2.5,4.6,5.2,4.6h70.8c2.6,0,4.8-2,5.2-4.6l9.9-79.7C181.6,23.6,132,38.3,81.3,23z"/>
<path class="st3" d="M175.3,74.6c-0.5,3.8,2.2,6.3,6.1,7.9c11.5,4.8,24.5-2.7,26.7-14.9c0.1-0.4,0.1-0.7,0.2-1.1
	c13.4-69.5-28.5-28.1-28.5-28.1l-1,7.8c0,0,28.6-31.6,26.2-0.3c-2.8,36-17.4,37.3-28.9,22L175.3,74.6z"/>
<ellipse class="st4" cx="131.5" cy="69.8" rx="15" ry="23.6"/>
<path class="st5" d="M131.1,54.3c0,0-4.8,11.1-1.6,14.5s1.6,16.5,1.6,16.5"/>
<g>
	<path class="st6" d="M251.4,32.1c0.7,1,2.1,4.2,2.1,6.3s-2.4,3.9-5.2,3.9H241c-1,0-1.5,0.5-1.5,0.9s3,1.7,3,3.4s-2.7,8-5.3,15.2
		c-2.8,7.6-3.4,10.5-3.9,11.5c-0.6,1-3.5,2.5-5.1,2.5s-7.5-4.8-7.5-7.6s1.9-9.7,4.7-15.6s5.1-8.3,5.1-9.3c0-0.7-1-0.9-2.1-0.9
		s-4.5-0.1-6.4-3.5c-1.9-3.4-2.1-4.9-2.1-5.9s0.3-2.6,1.1-2.6s0.8,1.2,2.9,1.2c2.1,0,16.3-0.9,22.3-0.9
		C249.8,30.8,250.8,31.1,251.4,32.1z"/>
	<path class="st6" d="M279.1,29.2c0.9,0,6.1,0.6,6.9,1.3c1.8,1.5,3.7,3.4,3.7,7.3c0,5-2.6,7.6-5.2,18.8c-2.6,11.3-2.4,12.5-3.4,14.3
		s-2.9,3.9-5,3.9s-8.5-2.6-8.5-5.3s1.3-4.8,1.3-5.6s-0.4-0.9-1.4-0.9s-5.1,0.3-5.1,1.8s-0.5,4.6-1.3,6c-0.7,1.4-3,3.8-4.3,3.8
		c-4.2,0-9.1-2.2-9.1-4.6c0-2.4,2.1-8.5,2.1-9.2s-0.2-1.9-0.8-3c-0.3-0.6-0.4-1-0.4-1.4c0-1.3,0.5-1.8,1.6-1.8s1.4-0.4,1.6-1.3
		c0.2-0.6,6.7-19.2,6.7-20.3c0-1.1,0.1-0.9,0.1-1.5s1.4-1.2,2-1.2c2.7,0,9,3.6,9,7.3c0,3.7-3.8,14.8-3.8,15.9c0,0.3,0.5,0.6,1,0.6
		c1.5-0.1,3.5-0.1,3.8-0.5c0.6-0.6,1.4-4.9,3.5-11.1c2.1-6.3,3.4-9,3.4-9.9s-0.3-1.5-0.3-2.3C277.1,29.5,278.2,29.2,279.1,29.2z"/>
	<path class="st6" d="M294.7,29.8c1,0,2.8,1,6.1,1.2c2.1,0.1,4,0.2,5.7,0.2c5,0,8.1-0.4,9.4-0.4c1.8,0,3.8,4.9,3.8,6.8
		c0,3.4-2.8,3.4-7.1,3.4c-1.5,0-2.3-0.1-3.1-0.1c-1.9,0-3.4,0.2-3.9,1.5c-0.7,1.6-1.9,5.1-1.9,6.1c0,0.2,0.1,0.3,0.2,0.3
		c0.6,0,4.3,0.3,5.6,0.3c1.4,0,3.4,0.4,3.4,2.6c0,3.1-2.4,6.3-4.2,6.8c-1.8,0.5-6.6,0-7,1.8c-0.3,1.4-0.9,2.3-0.9,2.9
		c0,0.6,0.6,0.6,1,0.6c1.4,0,4.3-0.5,6.1-0.5c2.4,0,4,0.4,4.8,2.3c0.9,1.9,1.7,3,1.7,5.1c0,2-3.8,3-6.1,3c-2.4,0-6,1-9.5,1
		s-5.1-1.1-5.1-1.1s-3.4-0.1-5.7-1.5c-2-1.2-2.9-1.9-2.9-4c0-5.2,8.6-31.3,8.6-34.1c0-1.3-0.3-1.9-0.3-2.4
		C293.3,30.1,293.6,29.8,294.7,29.8z"/>
	<path class="st6" d="M341.5,30.5c1,0,2.6,1.1,3.8,1.1s3.5-1,7.7-1c9.3,0,13.1,4.8,13.1,10.5c0,6.2-6.7,10.1-6.7,10.1
		s4.9,2.1,4.9,8.8c0,8.3-9,15.9-18.4,15.9c-5.7,0-10.1-2.7-10.5-3.5c-1.5,0-6.1-1.1-6.1-3.8s4-13.5,4-14.7c0-1.1-0.3-2-0.3-2.8
		s0.6-1.8,1.2-1.8c0.5,0,0.6-0.7,1.2-2.1c0.6-1.5,5.2-13.8,5.2-14.6c0-0.4-0.2-0.6-0.2-1C340.4,31.2,340.8,30.5,341.5,30.5z
		 M345.6,55.1c-1,0.6-4.2,9.2-4.2,11.2c0,1.1,0.7,1.4,2.3,1.4c4.3,0,9.1-7.7,9.1-11.8c0-1.1-0.7-1.8-2.8-1.8
		C347.8,54.2,346.1,54.8,345.6,55.1z M351.6,38.5c-1.1,1-3.1,7.2-3.1,7.5s0.1,0.6,0.6,0.6c3.1,0,8.1-3.9,8.1-7.2
		c0-1-0.7-1.7-2.4-1.7C353.8,37.8,352,38.1,351.6,38.5z"/>
	<path class="st6" d="M373.9,29.8c1,0,2.8,1,6.1,1.2c2.1,0.1,4,0.2,5.7,0.2c5,0,8.1-0.4,9.4-0.4c1.8,0,3.8,4.9,3.8,6.8
		c0,3.4-2.8,3.4-7.1,3.4c-1.5,0-2.3-0.1-3.1-0.1c-1.9,0-3.4,0.2-3.9,1.5c-0.7,1.6-1.9,5.1-1.9,6.1c0,0.2,0.1,0.3,0.2,0.3
		c0.6,0,4.3,0.3,5.6,0.3c1.4,0,3.4,0.4,3.4,2.6c0,3.1-2.4,6.3-4.2,6.8s-6.6,0-7,1.8c-0.3,1.4-0.9,2.3-0.9,2.9c0,0.6,0.6,0.6,1,0.6
		c1.4,0,4.3-0.5,6.1-0.5c2.4,0,4,0.4,4.8,2.3c0.9,1.9,1.7,3,1.7,5.1c0,2-3.8,3-6.1,3c-2.4,0-6,1-9.5,1s-5.1-1.1-5.1-1.1
		s-3.4-0.1-5.7-1.5c-2-1.2-2.9-1.9-2.9-4c0-5.2,8.6-31.3,8.6-34.1c0-1.3-0.3-1.9-0.3-2.4C372.6,30.1,372.9,29.8,373.9,29.8z"/>
	<path class="st6" d="M413.7,28.8c0-0.6,0.6-0.7,1.6-0.7c3.5,0,13.3,2.8,13.9,7.6c0.2,1.6,0.3,3.6,0.3,5.7c0,5.6-0.6,12.2-0.6,14.4
		c0.5,2,2,3.4,2,6c0,2.8-1.3,3.6-2.7,4.9c-0.1,1.1-0.7,7.6-3.6,7.6s-8-1.3-8-3.6c0-1.5,0.4-4.7,0.4-4.7s-2.2-0.2-4.7-0.2
		c-2,0-4.9,0.6-5.3,1.8c0,0.6-2.5,7.2-3.8,7.2c-1,0-5.3-0.6-7.2-3c-1.6-2.1-1.8-2.7-1.8-4c0-2,2.7-6.1,2.7-7
		c-0.5-0.9-1.9-3.5-1.9-5.8c0-0.7,0.3-1.1,0.6-1.1c0.3,0,1.4,0.9,4.2,0.9c0.5-0.6,5-8.2,8.4-14.6c2.8-5.2,5.7-9.4,5.7-10.2
		C413.8,29.5,413.7,29.4,413.7,28.8z M412.5,54.4c0,0.5,1.6,0.5,3,0.5c0.6,0,2.2,0,2.4-0.5c0.6-1.5,0.7-4.1,0.7-7.5
		c0-1.9-0.1-2.5-0.6-2.5C417.6,44.4,412.5,54,412.5,54.4z"/>
	<path class="st6" d="M465.1,30.6c2.6,0,9.8,1.9,9.8,6.7c0,3.6-0.6,6.9-3.9,15.8c-3.9,10.2-5.2,14.8-5.9,17.1
		c-0.6,2.2-2.8,4.7-4.2,4.7s-10.3-1.8-10.8-4c-0.7-2.8-2-15-3.6-19.2c0,0-0.6,4.9-1.9,11.5c-1.4,6.5-2.2,9.7-4.2,10.5
		c-2,0.7-6.2,0.7-8.2,0.7c-2.1,0-4.4-1.5-4.4-2.9c0-1.2,1.1-1,2.3-4.4c1.2-3.5,2.6-10.9,5.7-21.5s5.1-15.4,6.8-15.4s6.9,0.5,8.9,2.6
		c2.6,2.6,6.3,21.3,6.3,21.3s1.7-6.8,3.5-12.7c1.7-5.6,2.3-8.1,2.3-9.3C463.6,31,464.2,30.6,465.1,30.6z"/>
	<path class="st6" d="M489.6,28.8c0-0.6,0.6-0.7,1.6-0.7c3.5,0,13.3,2.8,13.9,7.6c0.2,1.6,0.3,3.6,0.3,5.7c0,5.6-0.6,12.2-0.6,14.4
		c0.5,2,2,3.4,2,6c0,2.8-1.3,3.6-2.7,4.9c-0.1,1.1-0.7,7.6-3.6,7.6s-8-1.3-8-3.6c0-1.5,0.4-4.7,0.4-4.7s-2.2-0.2-4.7-0.2
		c-2,0-4.9,0.6-5.3,1.8c0,0.6-2.5,7.2-3.8,7.2c-1,0-5.3-0.6-7.2-3c-1.6-2.1-1.8-2.7-1.8-4c0-2,2.7-6.1,2.7-7
		c-0.5-0.9-1.9-3.5-1.9-5.8c0-0.7,0.3-1.1,0.6-1.1c0.3,0,1.4,0.9,4.2,0.9c0.5-0.6,5-8.2,8.4-14.6c2.8-5.2,5.7-9.4,5.7-10.2
		C489.8,29.5,489.6,29.4,489.6,28.8z M488.4,54.4c0,0.5,1.6,0.5,3,0.5c0.6,0,2.2,0,2.4-0.5c0.6-1.5,0.7-4.1,0.7-7.5
		c0-1.9-0.1-2.5-0.6-2.5C493.6,44.4,488.4,54,488.4,54.4z"/>
	<path class="st6" d="M516,30.7c3.4,0,7.6-1.1,13.2-1.1c8.7,0,16,5.3,16,15c0,11.7-14.2,15-14.2,15c0.7,2.5,4.7,6.9,7.7,6.9
		c1.1,0,1.8-0.2,2.8-0.2c0.6,0,1.1,0.9,1.1,1.3c0,1.5-1.7,3.2-1.7,3.2s-1.7,4.6-6.1,4.6c-7.5,0-10.6-7.7-15.1-12.8
		c0,0-1,0.3-1.3,2.2c-0.2,1.9-0.7,4.2-1.2,6.3c-0.3,1.3-3.4,2.9-5.1,2.9c-1.7,0-6.5-1.5-6.5-4.8c0-3.4,2.5-11.6,5.6-21.8
		s3.1-12.3,3.1-13.1c0-0.7-0.3-1.5-0.3-2.1C514,31,514.8,30.7,516,30.7z M522.6,51.3c0,0.9,0.4,1.3,1.2,1.3c3,0,8.8-7.6,8.8-12.7
		c0-1.8-0.6-2.6-2.6-2.6c-1.4,0-3.7,1.3-3.9,2.6C526.2,39.8,522.6,50.4,522.6,51.3z"/>
	<path class="st6" d="M568.5,28c2.2,0,10.1,2.7,10.1,5.3c0,1.3-0.6,2.3-1.5,4.6c-2.3,5.5-7.2,13.3-13.1,17.6
		c-1.5,1.8-5.3,6.8-6.8,10c-1.4,3.2-4.6,9.2-7.2,9.2c-2.6,0-8.4-2.3-8.4-4.2s2-5.7,3.1-8.1c1.1-2.4,1.5-3.5,1.5-4.2
		s-1.1-1.9-1.1-5.8s-1.5-16-1.9-17.7s-0.6-2.2-0.6-2.8s1.9-1.2,4.3-1.2c2.4,0,7.6,0.6,9.1,4c0.8,1.6,1,4.7,1,7.3
		c0,2.9-0.2,5.4-0.2,5.4s7.5-10.8,7.5-16.7C564.3,29.2,566.3,28,568.5,28z"/>
</g>
</svg>
